<svg width="39" height="51" viewBox="0 0 39 51" fill="none" xmlns="http://www.w3.org/2000/svg">
<path fill-rule="evenodd" clip-rule="evenodd" d="M38.4604 3.03841C39.0329 1.64454 37.9168 0.142198 36.417 0.287922L35.6444 0.362988C35.4669 0.380236 35.2972 0.444654 35.153 0.549561L15.8776 14.5678C15.5911 14.7762 15.4362 15.1206 15.4705 15.4732L15.5586 16.3805C15.612 16.9302 16.101 17.3325 16.6506 17.2791L22.2135 16.7386C22.3691 16.7235 22.5189 16.6721 22.6511 16.5886L26.5456 14.1269C27.3781 13.6006 28.3899 14.4681 27.9968 15.3712L24.15 24.2105C24.1474 24.2165 24.1397 24.2182 24.1348 24.214C24.1298 24.2097 24.122 24.2115 24.1195 24.2176L18.1001 38.6002C17.7924 39.3355 16.7903 39.4328 16.3468 38.7706L6.55689 24.1516V24.1516C5.59885 22.7722 3.69766 22.443 2.33154 23.4198L1.7243 23.8541C0.0331259 25.0634 -0.350561 27.4181 0.869241 29.1018L15.9221 49.8784C16.8413 51.1472 18.7964 50.9142 19.3917 49.4648L38.4604 3.03841ZM15.9055 28.9056C16.3531 29.532 17.3108 29.4389 17.6294 28.7381L19.7801 24.008C20.0988 23.3072 19.5393 22.5243 18.7731 22.5988L13.6013 23.1013C12.8351 23.1757 12.4369 24.0517 12.8844 24.678L15.9055 28.9056Z" fill="#32CBFF"/>
</svg>
